<svg xmlns="http://www.w3.org/2000/svg" width="868" height="424" fill="none"><g fill-rule="evenodd" clip-rule="evenodd" opacity=".05"><path fill="#34373E" d="M229.981 318.148c4.605-.356 8.576-3.153 10.836-7.181 7.001-12.484 15.109-25.38 22.369-37.869 5.744-9.882 4.227-7.116 25.467-44.984l-169.96.417c-19.513-35.657-28.511-11.187 8.107-71.245 8.471-13.895 16.473-29.047 25.402-43.217 10.762-17.085 19.675-21.69 44.125-24.207 27.003-2.78 134.197-1.45 171.512-1.378 16.368.029 17.389-3.396 24.264-12.512C403.963 60.24 451.654 8.026 455.112 0c-82.739 0-168.088 0-251.08 1.03-33.347 1.779-74.48 12.508-98.905 26.484-29.825 17.064-39.208 38.932-57.444 69.547C37.156 114.738 7.506 161.21 3.06 177.71c-10.178 37.79 6.902 75.011 23.85 98.184 14.64 20.016 47.29 37.113 84.11 41.081 23.464 2.531 89.036 3.485 118.961 1.173ZM415.49 88.267l164.654-.454L444.933 316.39l96.17.405c25.175-.008 16.391 4.524 42.259-39.252 9.943-16.817 87.625-148.259 88.829-153.784-44.665-18.227-58.927-25.358-83.434-35.807l179.95-.222c2.6-.003 5.152-.709 7.287-2.194 2.801-1.95 7.018-5.105 11.211-9.075 11.471-10.863 68.514-63.632 80-76.243-72.1.45-184.171.41-259.182.45L499.921.675c-17.454.012-16.514 6.976-25.703 16.748-4.406 4.686-55.567 64.44-58.728 70.844Z"/><path fill="#FF8A00" d="m196.865 195.079 138.296 1.415c.847 1.929 5.257-.771-3.117 13.4l-52.008 88.711c-8.144 13.538-70.87 117.319-72.662 124.656 21.27-6.335 35.828-10.401 50.412-14.483a4263.372 4263.372 0 0 0 49.402-14.13c36.982-10.826 40.672-27.197 75.993-89.132 6.615-11.597 9.021-14.579 90.952-164.209-53.407-.121-93.964-.347-166.393-.332-58.603.012-38.3 2.477-87.195 36.322-7.296 5.05-19.055 12.33-23.68 17.782Z"/></g></svg>