<svg xmlns="http://www.w3.org/2000/svg" width="314" height="78" fill="none"><path fill="#fff" fill-rule="evenodd" d="M41.985 58.233c.84-.065 1.566-.576 1.978-1.311 1.278-2.28 2.758-4.633 4.084-6.913 1.048-1.805.771-1.3 4.649-8.213l-31.028.077c-3.562-6.51-5.205-2.043 1.48-13.007 1.547-2.537 3.008-5.302 4.638-7.89 1.964-3.118 3.591-3.959 8.055-4.418 4.93-.508 24.499-.265 31.311-.252 2.988.005 3.174-.62 4.43-2.284C73.746 11.15 82.452 1.617 83.083.152c-15.104 0-30.686 0-45.836.188C31.16.665 23.65 2.624 19.192 5.175c-5.445 3.116-7.158 7.108-10.487 12.697C6.783 21.099 1.37 29.582.559 32.595c-1.859 6.898 1.26 13.694 4.354 17.924 2.672 3.654 8.633 6.775 15.355 7.5 4.283.462 16.254.636 21.717.214ZM75.852 16.267l30.059-.083-24.684 41.728 17.557.074c4.596-.001 2.992.826 7.715-7.166 1.815-3.07 15.996-27.066 16.216-28.074-8.154-3.328-10.758-4.63-15.232-6.537l32.852-.04c.474-.001.94-.13 1.33-.401a18.048 18.048 0 0 0 2.047-1.657c2.094-1.983 12.507-11.616 14.604-13.919-13.162.083-33.622.075-47.315.083L91.266.276c-3.187.002-3.015 1.274-4.693 3.058-.804.855-10.144 11.764-10.72 12.933Z" clip-rule="evenodd"/><path fill="#FF8A00" fill-rule="evenodd" d="m35.94 35.767 25.247.258c.155.352.96-.14-.57 2.446l-9.494 16.195c-1.486 2.472-12.938 21.418-13.264 22.757 3.883-1.156 6.54-1.898 9.203-2.644 3.042-.851 5.97-1.687 9.018-2.58 6.752-1.976 7.425-4.964 13.873-16.271 1.208-2.117 1.647-2.661 16.604-29.978-9.75-.022-17.154-.063-30.376-.06-10.698.002-6.992.452-15.918 6.63-1.332.923-3.479 2.252-4.323 3.247Z" clip-rule="evenodd"/><path fill="#FF8A00" d="M247.197 13.124 252.295.342H314l-5.229 12.782h-17.78L272.558 58.59H247.72l18.302-45.466h-18.825ZM199.712 58.59 223.113.342h24.969l-23.4 58.248h-24.97ZM139.56 58.59 162.961.342h55.821l-4.837 12.216h-30.852l-4.183 10.355h28.76l-4.706 11.65h-28.761l-9.674 24.027H139.56Z"/><path fill="#fff" d="M82.16 63.113a1.889 1.889 0 0 1 1.699-1.064H313.35L307.24 76.28a1.888 1.888 0 0 1-1.735 1.143l-230.287.006 6.941-14.317Z"/><path fill="#1F2124" d="M110.217 70.061c0 .458-.225.875-.675 1.252-.451.37-1.071.665-1.861.883-.79.213-1.674.32-2.651.32h-.354v.564h-1.746v-.565h-.333c-.949 0-1.836-.109-2.66-.327-.819-.218-1.474-.513-1.966-.883-.492-.377-.738-.791-.738-1.244 0-.458.243-.872.728-1.243.492-.37 1.144-.665 1.954-.883.818-.219 1.702-.33 2.651-.336h.364v-.572h1.746v.572h.354c.984.006 1.868.117 2.651.336.79.212 1.41.504 1.861.875.45.37.675.788.675 1.251Zm-7.287 1.309v-2.626h-.218c-.908 0-1.726.101-2.454.303-.72.202-1.08.54-1.08 1.014 0 .322.183.581.55.777.374.197.828.336 1.362.418.534.076 1.074.114 1.622.114h.218Zm2.069 0c.921 0 1.708-.098 2.359-.294.659-.202.988-.54.988-1.015 0-.48-.336-.818-1.008-1.014-.666-.202-1.449-.303-2.35-.303h-.312v2.626h.323ZM113.823 67.027v4.45l5.51-4.45h1.746v6.053h-1.746v-4.458l-5.51 4.458h-1.757v-6.053h1.757ZM123.081 68.18v-1.153h8.712l-8.712 1.153Zm8.712-1.153v1.177h-3.451v4.876h-1.757v-4.876h-3.504v-1.177h8.712ZM135.556 69.276h5.042v-2.25h1.746v6.054h-1.746v-2.618h-5.042v2.618h-1.757v-6.053h1.757v2.249ZM151.5 70.495h-5.24v1.497l6.113-.025v1.113h-7.87v-6.053h7.87l.01 1.112h-6.123v1.252h5.24v1.104ZM154.177 70.061c0-.605.212-1.15.634-1.636.43-.485 1.012-.864 1.747-1.137.741-.278 1.563-.417 2.464-.417 1.129 0 2.103.216 2.921.646.824.426 1.393 1.023 1.705 1.792l-1.83.008c-.132-.278-.357-.515-.676-.712a3.51 3.51 0 0 0-1.039-.45 4.093 4.093 0 0 0-1.071-.155c-.499 0-.984.082-1.455.245-.472.158-.86.396-1.165.712-.298.31-.447.679-.447 1.104 0 .431.142.802.427 1.113.284.305.658.54 1.122.703a4.74 4.74 0 0 0 1.518.237c.534 0 1.057-.111 1.57-.335.519-.224.911-.543 1.174-.957h1.872c-.333.774-.908 1.371-1.726 1.791-.811.42-1.778.63-2.9.63-.894 0-1.712-.139-2.454-.417-.741-.278-1.327-.66-1.757-1.145-.422-.486-.634-1.025-.634-1.62ZM169.941 70.061c0-.605.211-1.15.634-1.636.43-.485 1.012-.864 1.747-1.137.741-.278 1.562-.417 2.463-.417 1.13 0 2.104.216 2.921.646.825.426 1.393 1.023 1.705 1.792l-1.829.008c-.132-.278-.357-.515-.676-.712a3.505 3.505 0 0 0-1.04-.45 4.091 4.091 0 0 0-1.07-.155c-.499 0-.984.082-1.456.245a2.84 2.84 0 0 0-1.164.712c-.298.31-.447.679-.447 1.104 0 .431.142.802.426 1.113.284.305.659.54 1.123.703a4.74 4.74 0 0 0 1.518.237c.533 0 1.057-.111 1.569-.335.52-.224.912-.543 1.175-.957h1.871c-.332.774-.908 1.371-1.725 1.791-.811.42-1.778.63-2.901.63-.894 0-1.711-.139-2.453-.417-.742-.278-1.327-.66-1.757-1.145-.423-.486-.634-1.025-.634-1.62ZM191.35 67.027c.644 0 1.212.084 1.704.253.499.17.884.406 1.154.712.277.3.416.649.416 1.047v.032c0 .666-.253 1.173-.759 1.522s-1.247.523-2.224.523h-3.971v1.964h-1.757v-6.053h5.437Zm-.198 3.01c.395 0 .71-.014.946-.041.243-.033.447-.117.613-.254.167-.142.25-.36.25-.654 0-.31-.083-.537-.25-.679a1.126 1.126 0 0 0-.613-.27 7.19 7.19 0 0 0-.946-.049h-.405c-.181 0-.492.003-.936.008h-2.141v1.939h3.482ZM203.572 70.495h-5.239v1.497l6.113-.025v1.113h-7.87v-6.053h7.87l.01 1.112h-6.123v1.252h5.239v1.104ZM215.835 71.076c-.007.758-.444 1.311-1.31 1.66-.866.349-1.996.523-3.389.523-1.026 0-1.902-.1-2.63-.302-.728-.202-1.282-.494-1.663-.875a1.881 1.881 0 0 1-.562-1.366h1.705c0 .512.305.889.915 1.128.61.24 1.355.36 2.235.36.804.006 1.486-.081 2.048-.261.568-.186.856-.477.863-.876-.007-.169-.063-.294-.167-.376-.097-.087-.312-.15-.644-.188-.326-.044-.839-.066-1.539-.066h-1.923v-1.014h1.923c.485 0 .88-.013 1.185-.04.312-.033.562-.099.749-.197.194-.098.291-.248.291-.45 0-.278-.27-.485-.811-.621-.541-.137-1.199-.21-1.975-.221-.88-.006-1.625.07-2.235.229-.61.152-.915.4-.915.744h-1.705c0-.785.503-1.317 1.508-1.595 1.011-.284 2.127-.425 3.347-.425.741 0 1.431.038 2.069.114.644.071 1.209.24 1.694.507.485.267.728.663.728 1.186 0 .578-.316.974-.946 1.186.741.213 1.126.62 1.154 1.22v.016ZM226.423 67.027l-3.867 5.136c-.208.306-.61.54-1.206.704a7.605 7.605 0 0 1-1.954.237l-.312-.008v-1.112c.783 0 1.175-.101 1.175-.303a.31.31 0 0 0-.021-.106 2.08 2.08 0 0 0-.031-.082l-3.14-4.466h1.882l2.682 3.918 2.911-3.918h1.881ZM234.743 67.027v6.053h-1.756v-4.95h-3.285c-.153.78-.319 1.46-.499 2.038a9.067 9.067 0 0 1-.728 1.725 2.044 2.044 0 0 1-1.019.868 5.007 5.007 0 0 1-1.341.319v-1.252c.464 0 .804-.224 1.019-.67.27-.65.482-1.312.634-1.988.159-.677.274-1.39.343-2.143h6.632ZM241.667 68.892c.658 0 1.233.081 1.725.245.492.164.874.403 1.144.72.277.316.416.695.416 1.137v.032c0 .404-.139.761-.416 1.072-.27.31-.655.553-1.154.728-.492.17-1.06.254-1.705.254h-4.782v-6.053h1.757v1.865h3.015Zm.208 3.181c.408 0 .745-.092 1.008-.278.263-.185.395-.46.395-.826 0-.376-.128-.646-.385-.81-.256-.169-.596-.253-1.018-.253h-3.223v2.151c1.476 0 2.45.006 2.921.016h.302ZM244.042 68.18v-1.153h8.712l-8.712 1.153Zm8.712-1.153v1.177h-3.451v4.876h-1.757v-4.876h-3.504v-1.177h8.712ZM261.91 73.08h-1.829l-.884-1.285h-4.855l-.883 1.285h-1.83l4.169-6.053h1.944l4.168 6.053Zm-5.135-4.81-1.663 2.405h3.316l-1.653-2.405ZM260.679 68.18v-1.153h8.712l-8.712 1.153Zm8.712-1.153v1.177h-3.452v4.876h-1.757v-4.876h-3.503v-1.177h8.712ZM275.229 66.896c.901 0 1.712.136 2.433.409.728.272 1.296.651 1.705 1.137a2.472 2.472 0 0 1 0 3.255c-.409.48-.974.86-1.695 1.137-.721.273-1.531.41-2.432.41a6.882 6.882 0 0 1-2.412-.41c-.735-.278-1.317-.657-1.747-1.137-.429-.485-.644-1.025-.644-1.62 0-.6.215-1.142.644-1.627.43-.485 1.009-.864 1.737-1.137a6.754 6.754 0 0 1 2.411-.417Zm0 5.218c.506 0 .984-.079 1.435-.237.45-.158.814-.39 1.091-.695a1.6 1.6 0 0 0 .416-1.104c0-.42-.142-.786-.426-1.096-.277-.311-.645-.549-1.102-.712a4.17 4.17 0 0 0-1.435-.245c-.54 0-1.036.081-1.486.245-.444.163-.797.398-1.06.703a1.608 1.608 0 0 0-.395 1.088c0 .431.135.802.405 1.113.277.305.641.54 1.092.703.45.158.939.237 1.465.237ZM292.024 67.027v6.053h-1.757v-3.788l-2.35 3.788h-1.756l-2.516-3.845v3.845h-1.757v-6.053h2.121l3.014 4.662 2.89-4.662h2.111Z"/></svg>