<svg xmlns="http://www.w3.org/2000/svg" width="185" height="46" fill="none"><path fill="#fff" fill-rule="evenodd" d="M24.617 34.398c.493-.038.918-.337 1.16-.769.75-1.336 1.617-2.716 2.394-4.053.615-1.058.453-.762 2.726-4.815l-18.192.045c-2.089-3.817-3.052-1.198.868-7.627.906-1.487 1.763-3.109 2.719-4.625 1.152-1.83 2.106-2.322 4.723-2.591 2.89-.298 14.364-.156 18.358-.148 1.752.003 1.862-.363 2.598-1.34 1.269-1.683 6.374-7.272 6.744-8.131-8.856 0-17.992 0-26.876.11-3.569.19-7.972 1.339-10.586 2.835-3.193 1.826-4.197 4.167-6.149 7.444C3.977 12.625.804 17.6.327 19.366c-1.089 4.045.74 8.029 2.553 10.51 1.568 2.142 5.062 3.972 9.004 4.397 2.511.27 9.53.373 12.733.125ZM44.474 9.792l17.624-.049L47.626 34.21l10.293.044c2.695-.001 1.755.484 4.524-4.202 1.064-1.8 9.38-15.87 9.508-16.461-4.78-1.951-6.307-2.714-8.93-3.833l19.261-.024c.279 0 .552-.075.78-.234.3-.209.751-.547 1.2-.972 1.228-1.163 7.334-6.81 8.563-8.16-7.717.047-19.713.043-27.742.047L53.51.416c-1.868.002-1.767.747-2.75 1.793-.472.502-5.949 6.898-6.287 7.583Z" clip-rule="evenodd"/><path fill="#FF8A00" fill-rule="evenodd" d="m21.072 21.225 14.804.151c.09.207.562-.082-.334 1.435l-5.567 9.495c-.872 1.45-7.586 12.558-7.778 13.343 2.277-.678 3.835-1.113 5.396-1.55 1.784-.5 3.501-.989 5.288-1.512 3.959-1.16 4.354-2.911 8.135-9.54.708-1.242.965-1.561 9.735-17.578-5.717-.013-10.058-.037-17.81-.035-6.274.001-4.1.265-9.334 3.888-.78.54-2.04 1.32-2.535 1.903Z" clip-rule="evenodd"/><path fill="#FF8A00" d="m144.939 7.95 2.99-7.494h36.179l-3.066 7.495h-10.424L159.81 34.609h-14.564l10.731-26.658h-11.038ZM117.098 34.61 130.818.455h14.641L131.738 34.61h-14.64ZM81.828 34.61 95.55.455h32.73l-2.836 7.163h-18.09L104.9 13.69h16.864l-2.76 6.831h-16.863l-5.672 14.088h-14.64Z"/><path fill="#fff" d="M48.172 37.262c.185-.382.572-.624.996-.624h134.559l-3.583 8.345c-.174.406-.574.67-1.017.67l-135.025.003 4.07-8.394Z"/><path fill="#1F2124" d="M64.624 41.334c0 .27-.132.514-.396.734-.265.218-.628.39-1.092.518a5.98 5.98 0 0 1-1.554.187h-.207v.331H60.35v-.33h-.195a6.085 6.085 0 0 1-1.56-.193c-.48-.127-.864-.3-1.152-.518-.289-.22-.433-.463-.433-.729 0-.268.142-.511.426-.729.289-.217.67-.39 1.146-.517.48-.128.998-.194 1.555-.197h.213v-.336h1.024v.336h.207a5.919 5.919 0 0 1 1.554.197c.464.124.827.295 1.092.513.264.217.396.462.396.733Zm-4.273.768v-1.54h-.128c-.532 0-1.012.06-1.439.178-.422.118-.633.316-.633.594 0 .19.107.341.323.456.219.115.485.197.798.245.313.045.63.067.95.067h.129Zm1.213 0c.54 0 1.002-.058 1.383-.173.386-.118.58-.316.58-.595 0-.28-.198-.48-.592-.594-.39-.119-.849-.178-1.377-.178h-.183v1.54h.189ZM66.738 39.555v2.61l3.23-2.61h1.024v3.55h-1.024V40.49l-3.23 2.614h-1.03v-3.549h1.03ZM72.166 40.231v-.676h5.108l-5.108.676Zm5.108-.676v.69h-2.023v2.86h-1.03v-2.86h-2.055v-.69h5.108ZM79.48 40.874h2.957v-1.319h1.024v3.55h-1.024V41.57H79.48v1.534h-1.03v-3.549h1.03v1.32ZM88.829 41.589h-3.072v.877l3.584-.014v.652h-4.614v-3.549h4.614l.006.653h-3.59v.733h3.072v.648ZM90.399 41.334c0-.354.124-.674.372-.959.252-.284.593-.506 1.024-.666a4.085 4.085 0 0 1 1.444-.245c.663 0 1.233.126 1.713.379.484.25.817.6 1 1.05l-1.073.005a.999.999 0 0 0-.396-.417 2.056 2.056 0 0 0-.61-.264 2.398 2.398 0 0 0-1.481.053 1.664 1.664 0 0 0-.683.417.904.904 0 0 0-.262.648c0 .252.084.47.25.652.167.179.386.316.658.412.277.093.573.14.89.14.313 0 .62-.066.92-.197a1.48 1.48 0 0 0 .69-.561h1.097c-.195.454-.533.804-1.012 1.05-.476.246-1.043.37-1.7.37a4.068 4.068 0 0 1-1.44-.245c-.434-.164-.777-.387-1.03-.672a1.41 1.41 0 0 1-.371-.95ZM99.642 41.334c0-.354.124-.674.371-.959.252-.284.594-.506 1.024-.666a4.089 4.089 0 0 1 1.445-.245c.662 0 1.233.126 1.713.379.483.25.817.6.999 1.05l-1.072.005a1.006 1.006 0 0 0-.397-.417 2.05 2.05 0 0 0-.609-.264 2.403 2.403 0 0 0-1.481.053 1.662 1.662 0 0 0-.683.417.903.903 0 0 0-.262.648c0 .252.083.47.25.652.167.179.386.316.658.412.277.093.573.14.89.14.313 0 .62-.066.92-.197.305-.131.535-.318.689-.561h1.097c-.195.454-.532.804-1.011 1.05-.476.246-1.043.37-1.701.37a4.064 4.064 0 0 1-1.438-.245c-.435-.164-.779-.387-1.031-.672a1.413 1.413 0 0 1-.371-.95ZM112.194 39.555c.378 0 .711.05 1 .149.292.099.518.238.676.417.163.176.244.38.244.614v.02c0 .39-.148.687-.445.891-.296.205-.731.307-1.304.307h-2.329v1.151h-1.03v-3.549h3.188Zm-.116 1.765c.232 0 .417-.008.555-.024a.707.707 0 0 0 .36-.148c.097-.084.146-.212.146-.384 0-.182-.049-.315-.146-.398a.666.666 0 0 0-.36-.158 4.219 4.219 0 0 0-.555-.03h-.237c-.106 0-.289.002-.549.006h-1.256v1.136h2.042ZM119.361 41.589h-3.072v.877l3.584-.014v.652h-4.614v-3.549h4.614l.006.653h-3.59v.733h3.072v.648ZM126.551 41.93c-.004.444-.26.768-.768.973-.508.205-1.171.307-1.987.307-.602 0-1.116-.06-1.543-.178-.426-.118-.751-.289-.975-.513a1.106 1.106 0 0 1-.329-.8h1c0 .3.179.52.536.661.358.14.795.211 1.311.211.471.003.871-.048 1.2-.153.334-.11.502-.28.506-.514-.004-.099-.036-.172-.097-.22-.057-.051-.183-.088-.378-.11a7.544 7.544 0 0 0-.902-.039h-1.128v-.595h1.128c.284 0 .516-.008.695-.023.182-.02.329-.058.438-.116.114-.057.171-.145.171-.263 0-.163-.158-.285-.475-.365a5.102 5.102 0 0 0-1.158-.13c-.516-.003-.953.042-1.311.135-.357.09-.536.235-.536.436h-1c0-.46.295-.772.884-.935a7.255 7.255 0 0 1 1.963-.25c.434 0 .839.023 1.213.068.377.041.709.14.993.297.284.157.427.389.427.696 0 .339-.185.57-.555.695.435.125.66.363.677.715v.01ZM132.759 39.555l-2.267 3.012c-.122.18-.358.317-.707.413-.35.092-.732.139-1.146.139l-.183-.005v-.652c.459 0 .689-.06.689-.178 0-.019-.004-.04-.013-.062a1.125 1.125 0 0 0-.018-.048l-1.841-2.619h1.104l1.572 2.297 1.707-2.297h1.103ZM137.637 39.555v3.55h-1.03v-2.902h-1.926a11.5 11.5 0 0 1-.292 1.194 5.312 5.312 0 0 1-.427 1.012 1.197 1.197 0 0 1-.597.508c-.256.1-.518.162-.787.187v-.733c.273 0 .472-.132.598-.394.158-.38.282-.769.372-1.165.093-.397.16-.816.201-1.257h3.888ZM141.697 40.649c.386 0 .723.048 1.012.144.288.096.512.236.67.422a.975.975 0 0 1 .244.666v.02a.914.914 0 0 1-.244.628c-.158.182-.384.324-.677.427-.288.099-.621.148-.999.148h-2.804v-3.549h1.03v1.094h1.768Zm.122 1.865c.239 0 .436-.054.591-.163.154-.108.231-.27.231-.484 0-.22-.075-.379-.225-.475-.15-.099-.35-.149-.597-.149h-1.89v1.262c.866 0 1.437.003 1.713.01h.177ZM143.09 40.231v-.676h5.107l-5.107.676Zm5.107-.676v.69h-2.023v2.86h-1.03v-2.86h-2.054v-.69h5.107ZM153.566 43.104h-1.073l-.518-.753h-2.846l-.518.753h-1.073l2.444-3.549h1.14l2.444 3.55Zm-3.011-2.82-.975 1.41h1.944l-.969-1.41ZM152.844 40.231v-.676h5.108l-5.108.676Zm5.108-.676v.69h-2.023v2.86h-1.03v-2.86h-2.055v-.69h5.108ZM161.376 39.478c.528 0 1.003.08 1.426.24.427.16.76.382.999.667a1.45 1.45 0 0 1 0 1.909c-.239.281-.57.503-.993.666a4.01 4.01 0 0 1-1.426.24c-.512 0-.984-.08-1.414-.24-.431-.163-.772-.385-1.024-.666a1.398 1.398 0 0 1-.378-.95c0-.352.126-.67.378-.954.252-.285.591-.507 1.018-.667a3.96 3.96 0 0 1 1.414-.245Zm0 3.06c.296 0 .577-.046.841-.139.264-.093.477-.228.64-.407a.943.943 0 0 0 .244-.648.924.924 0 0 0-.25-.642 1.544 1.544 0 0 0-.646-.418 2.452 2.452 0 0 0-.842-.144c-.317 0-.607.048-.871.144-.26.096-.468.234-.622.413a.947.947 0 0 0-.232.637c0 .253.08.47.238.653.163.179.376.316.64.412.264.093.551.14.86.14ZM171.223 39.555v3.55h-1.03v-2.221l-1.378 2.22h-1.03l-1.475-2.254v2.254h-1.03v-3.549h1.243l1.768 2.734 1.694-2.734h1.238Z"/></svg>