<svg width="21" height="31" fill="none" xmlns="http://www.w3.org/2000/svg"><path d="M13.63.992A10.461 10.461 0 0 0 2.445 4.238L7.398 8.4 13.63.992Z" fill="#1A73E8"/><path d="M2.445 4.238a10.435 10.435 0 0 0-2.444 6.724 11.715 11.715 0 0 0 1.035 4.991l6.362-7.552-4.953-4.163Z" fill="#EA4335"/><path d="M10.462 6.966a3.996 3.996 0 0 1 4.009 3.996 3.957 3.957 0 0 1-.957 2.586l6.232-7.41A10.5 10.5 0 0 0 13.63.967L7.397 8.401a3.97 3.97 0 0 1 3.065-1.435Z" fill="#4285F4"/><path d="M10.462 14.97a4.009 4.009 0 0 1-4.008-4.008 3.97 3.97 0 0 1 .944-2.587l-6.362 7.578A37.073 37.073 0 0 0 5.78 22.74l7.759-9.193a3.969 3.969 0 0 1-3.078 1.422Z" fill="#FBBC04"/><path d="M13.372 25.25c3.49-5.457 7.551-7.94 7.551-14.224 0-1.679-.403-3.333-1.177-4.823L5.781 22.741c.595.776 1.19 1.604 1.772 2.51 2.133 3.284 1.539 5.249 2.91 5.249 1.37 0 .775-1.965 2.909-5.25Z" fill="#34A853"/></svg>