<svg width="147" height="35" fill="none" xmlns="http://www.w3.org/2000/svg"><path fill-rule="evenodd" clip-rule="evenodd" d="M19.82 27.783c.392-.03.73-.268.923-.612.596-1.063 1.287-2.161 1.905-3.225.49-.842.36-.606 2.17-3.832l-14.477.036c-1.662-3.037-2.428-.953.69-6.069.722-1.183 1.404-2.474 2.164-3.68.917-1.456 1.676-1.848 3.758-2.063 2.3-.236 11.431-.123 14.61-.117 1.393.003 1.48-.29 2.066-1.066 1.01-1.34 5.073-5.787 5.367-6.47-7.047 0-14.317 0-21.386.087-2.84.152-6.344 1.065-8.425 2.256-2.54 1.453-3.34 3.316-4.892 5.924-.897 1.505-3.423 5.464-3.801 6.87-.867 3.218.588 6.388 2.031 8.362 1.247 1.705 4.028 3.161 7.164 3.5 1.999.215 7.584.296 10.133.1ZM35.621 8.202l14.025-.038-11.517 19.47 8.192.034c2.144-.001 1.396.385 3.6-3.344.846-1.432 7.463-12.628 7.565-13.099-3.804-1.552-5.019-2.16-7.106-3.05l15.327-.018c.222 0 .439-.06.62-.187.24-.166.599-.435.956-.773.977-.926 5.835-5.42 6.814-6.494C67.956.74 58.41.738 52.02.74h-9.208c-1.487.002-1.407.595-2.19 1.427-.375.4-4.732 5.489-5.002 6.034Z" fill="#fff"/><path fill-rule="evenodd" clip-rule="evenodd" d="m17 17.3 11.78.12c.072.165.448-.065-.266 1.142l-4.43 7.556c-.693 1.154-4.86 8.07-5.013 8.694 1.812-.54 3.052-.886 4.294-1.233a362.07 362.07 0 0 0 4.208-1.204c3.15-.922 2.288-.393 5.297-5.668.563-.988.768-1.242 7.747-13.987-4.549-.01-8.004-.03-14.173-.028-4.991.001-3.262.21-7.427 3.094-.621.43-1.623 1.05-2.017 1.514Z" fill="#262728"/><path d="m115.566 6.737 2.379-5.964h28.79l-2.44 5.964H136l-8.601 21.213H115.81l8.54-21.213h-8.784ZM93.411 27.95 104.33.773h11.651L105.061 27.95h-11.65ZM65.346 27.95 76.264.773h26.045l-2.257 5.7H85.657l-1.952 4.83h13.42l-2.197 5.436H81.51l-4.514 11.21h-11.65Z" fill="#262728"/></svg>