<svg width="1729" height="404" fill="none" xmlns="http://www.w3.org/2000/svg"><g opacity=".3"><path fill-rule="evenodd" clip-rule="evenodd" d="M231.184 320.533c4.629-.358 8.621-3.169 10.892-7.219 7.039-12.55 15.189-25.513 22.487-38.067 5.774-9.934 4.249-7.154 25.6-45.22l-170.849.42c-19.615-35.844-28.66-11.246 8.149-71.618 8.516-13.968 16.559-29.198 25.535-43.443 10.818-17.174 19.778-21.802 44.355-24.333 27.145-2.795 134.9-1.459 172.41-1.385 16.453.028 17.48-3.415 24.39-12.578C406.075 61.276 454.016 8.788 457.492.72c-83.171 0-168.967 0-252.393 1.036-33.521 1.788-74.869 12.574-99.423 26.623-29.98 17.153-39.413 39.135-57.744 69.91-10.581 17.77-40.387 64.484-44.856 81.072-10.232 37.986 6.938 75.403 23.974 98.697 14.717 20.12 47.538 37.306 84.551 41.295 23.587 2.545 89.501 3.504 119.583 1.18ZM417.668 89.452l165.516-.456-135.919 229.771 96.673.407c25.307-.008 16.477 4.547 42.481-39.458 9.995-16.905 88.083-149.034 89.293-154.587-44.898-18.323-59.235-25.491-83.87-35.995l180.891-.223c2.614-.003 5.179-.713 7.325-2.206 2.816-1.96 7.055-5.131 11.269-9.122C802.858 66.663 860.2 13.618 871.746.94c-72.477.452-185.134.411-260.537.452l-108.668.008c-17.545.013-16.6 7.013-25.837 16.836-4.429 4.71-55.858 64.777-59.036 71.215Z" fill="#fff"/><path fill-rule="evenodd" clip-rule="evenodd" d="m197.902 196.824 139.019 1.422c.852 1.939 5.285-.775-3.133 13.47l-52.281 89.175c-8.185 13.609-57.361 95.226-59.162 102.601 21.381-6.368 36.015-10.455 50.675-14.558 16.755-4.69 32.877-9.29 49.66-14.204 37.176-10.883 27.006-4.633 62.512-66.892 6.649-11.657 9.069-14.655 91.428-165.067-53.686-.122-94.456-.349-167.263-.334-58.91.012-38.501 2.489-87.652 36.512-7.334 5.076-19.154 12.394-23.803 17.875Z" fill="#FF8A00"/><path d="m1361.16 72.155 28.07-70.384H1729l-28.79 70.384h-97.9l-101.5 250.354h-136.77l100.78-250.354h-103.66ZM1099.69 322.509 1228.54 1.771h137.49l-128.85 320.738h-137.49ZM768.47 322.509 897.322 1.771H1204.7l-26.64 67.265h-169.88l-23.036 57.021h158.366l-25.91 64.147H959.229l-53.268 132.305H768.47Z" fill="#FF8A00"/></g></svg>