<svg width="83" height="20" fill="none" xmlns="http://www.w3.org/2000/svg"><path fill-rule="evenodd" clip-rule="evenodd" d="M11.098 15.717a.663.663 0 0 0 .523-.346c.338-.603.729-1.225 1.08-1.828.276-.477.203-.343 1.228-2.17l-8.201.02c-.942-1.721-1.376-.54.39-3.438.41-.67.796-1.402 1.227-2.086.519-.824.949-1.046 2.129-1.168 1.303-.134 6.476-.07 8.276-.066.79.001.84-.164 1.171-.604.573-.76 2.874-3.279 3.04-3.666-3.992 0-8.11 0-12.115.05-1.61.085-3.594.603-4.773 1.277-1.44.824-1.892 1.88-2.772 3.356C1.793 5.902.362 8.145.148 8.94c-.492 1.824.333 3.62 1.15 4.738.707.966 2.283 1.791 4.06 1.983 1.132.122 4.296.168 5.74.056ZM20.05 4.624l7.945-.021-6.524 11.03 4.64.02c1.215-.001.791.217 2.04-1.895.48-.811 4.228-7.154 4.286-7.42-2.155-.88-2.843-1.225-4.026-1.729l8.684-.01a.614.614 0 0 0 .351-.106c.136-.094.339-.247.541-.438.554-.525 3.306-3.071 3.86-3.68-3.479.022-8.886.02-12.506.022h-5.217c-.842.001-.797.337-1.24.809-.213.226-2.681 3.11-2.834 3.418Z" fill="#232529"/><path fill-rule="evenodd" clip-rule="evenodd" d="m9.5 9.779 6.674.068c.04.093.253-.037-.15.647l-2.51 4.28c-.393.654-2.754 4.572-2.84 4.926 1.026-.306 1.729-.502 2.432-.699.805-.225 1.579-.446 2.384-.682 1.785-.522 1.297-.222 3.001-3.211.32-.56.435-.704 4.389-7.924-2.577-.006-4.534-.017-8.03-.016-2.827 0-1.848.12-4.207 1.753-.352.243-.92.595-1.143.858Z" fill="#FF8A00"/><path d="M65.342 4.159 66.69.779H83l-1.382 3.38h-4.7l-4.872 12.018H65.48l4.838-12.018h-4.976ZM52.79 16.177 58.976.78h6.6l-6.185 15.397h-6.6ZM36.89 16.177 43.076.78H57.83l-1.278 3.229h-8.156l-1.105 2.737h7.602l-1.244 3.08h-7.602l-2.558 6.35h-6.6Z" fill="#FF8A00"/></svg>